<?xml version="1.0" encoding="UTF-8"?>
<svg id="Layer_3" data-name="Layer 3" xmlns="http://www.w3.org/2000/svg" viewBox="0 0 669.97 737.62">
  <defs>
    <style>
      .cls-1 {
        fill: #fff;
        stroke-width: 0px;
      }
    </style>
  </defs>
  <g>
    <path class="cls-1" d="m402.27,314.72l-202.5-89.21c-10.95-4.83-23.52-3.13-32.8,4.41-9.29,7.54-13.52,19.5-11.04,31.2l48.33,228.47c2.92,13.8,14.33,23.87,28.39,25.06.92.08,1.83.11,2.73.11,12.98,0,24.59-7.81,29.44-20.08l36.36-92.02,97.21-28.45c12.94-3.79,21.88-14.93,22.75-28.39.88-13.46-6.53-25.67-18.87-31.11Zm-112.2,55.09c-9.47,2.77-16.98,9.62-20.6,18.79l-33.31,84.3-45.14-213.37,189.93,83.67-90.88,26.6Z"/>
    <path class="cls-1" d="m611.73,253.8L193.84,15.35c-36.15-20.63-79.22-20.46-115.21.44-35.99,20.9-57.48,58.23-57.48,99.84v506.27c0,42.87,22.45,80.73,60.06,101.3,17.6,9.62,36.59,14.41,55.52,14.41,21.53,0,42.98-6.19,62.18-18.5l417.9-267.82c34.31-21.99,54.17-59.44,53.12-100.18-1.05-40.74-22.81-77.12-58.2-97.32Zm-13.62,168.31l-417.9,267.82c-25.26,16.18-56.05,17.26-82.37,2.86-26.32-14.39-42.03-40.89-42.03-70.89v-237.47c-18.75-1.4-33.54-17.02-33.54-36.12s14.79-34.73,33.54-36.12V115.64c0-29.12,15.04-55.24,40.22-69.87,12.68-7.37,26.62-11.05,40.57-11.05s27.49,3.58,40.05,10.74l417.9,238.45c24.77,14.13,40,39.59,40.73,68.1.74,28.51-13.16,54.72-37.17,70.1Z"/>
  </g>
  <path class="cls-1" d="m213.07,447.55l-6.26-29.58-1.61-1.09-88.71-60.29c.4-2.7.59-5.47.59-8.27,0-32.29-26.27-58.56-58.56-58.56S0,316.03,0,348.31s26.25,58.56,58.53,58.56c20.45,0,38.48-10.55,48.95-26.47l82.8,56.25-62.94,83.49c-9.98-7.95-22.63-12.7-36.37-12.7-32.29,0-58.56,26.27-58.56,58.56s26.27,58.56,58.56,58.56,58.53-26.27,58.53-58.56c0-9.33-2.2-18.17-6.12-26.02l67.4-89.38,2.29-3.05Zm-154.54-62.96c-19.98,0-36.25-16.27-36.25-36.27s16.27-36.27,36.25-36.27,36.27,16.27,36.27,36.27-16.27,36.27-36.27,36.27Zm32.44,217.69c-20.01,0-36.27-16.27-36.27-36.27s16.27-36.27,36.27-36.27,36.25,16.27,36.25,36.27-16.27,36.27-36.25,36.27Z"/>
  <path class="cls-1" d="m507.87,319.57c-4.04,0-7.97.42-11.79,1.19l-83.07-114.64c5.77-7.87,9.19-17.55,9.19-28.08,0-26.2-21.22-47.41-47.41-47.41-16.79,0-31.54,8.74-39.96,21.94l-137.96-24.29c-1.24-31.2-27.01-56.2-58.51-56.2s-58.53,26.27-58.53,58.56,26.25,58.56,58.53,58.56c24.49,0,45.51-15.1,54.22-36.5l134.84,23.72c-.02.54-.02,1.09-.02,1.63,0,13.69,5.79,26.02,15.08,34.66l.74,94.94,24.85,10.95-.73-93.73c2.43.4,4.93.59,7.45.59,6.69,0,13.07-1.39,18.84-3.89l79.38,109.54c-14.36,10.67-23.69,27.78-23.69,47.02,0,11.12,3.12,21.54,8.54,30.4l-67.22,84.5c-4.95-1.73-10.28-2.7-15.85-2.7-6.34,0-12.38,1.24-17.88,3.49l-68.47-103.35c-1.21,1.3-2.19,2.81-2.86,4.5l-8.91,22.56,60.51,91.37c-6.14,7.97-9.78,17.98-9.78,28.84,0,26.17,21.22,47.39,47.39,47.39s47.41-21.22,47.41-47.39c0-11.64-4.21-22.31-11.19-30.55l64.08-80.59c9.33,6.36,20.65,10.08,32.78,10.08,32.29,0,58.56-26.27,58.56-58.56s-26.27-58.56-58.56-58.56ZM138.36,166.9c-19.98,0-36.25-16.27-36.25-36.27s16.27-36.27,36.25-36.27,36.27,16.27,36.27,36.27-16.27,36.27-36.27,36.27Zm369.51,247.5c-8.12,0-15.62-2.67-21.69-7.2l-1.56-1.21c-7.95-6.69-13.02-16.69-13.02-27.85,0-20.01,16.27-36.27,36.27-36.27s36.27,16.27,36.27,36.27-16.29,36.27-36.27,36.27Z"/>
</svg>
